<svg xmlns="http://www.w3.org/2000/svg" xmlns:xlink="http://www.w3.org/1999/xlink" width="700" zoomAndPan="magnify" viewBox="0 0 525 374.999991" height="500" preserveAspectRatio="xMidYMid meet" version="1.0"><path fill="#be1e2d" d="M 3.65625 373.589844 L 2.625 371.332031 L 97.40625 328.253906 L 154.5 335.382812 L 300.269531 260.699219 L 380.851562 271.792969 L 513.464844 227.679688 L 514.21875 230.03125 L 381.054688 274.316406 L 380.789062 274.285156 L 300.707031 263.269531 L 154.953125 337.953125 L 154.578125 337.90625 L 97.785156 330.792969 Z M 3.65625 373.589844 " fill-opacity="1" fill-rule="nonzero"/><path fill="#be1e2d" d="M 164.945312 336.230469 C 164.945312 336.929688 164.875 337.625 164.738281 338.308594 C 164.605469 338.996094 164.402344 339.660156 164.132812 340.308594 C 163.867188 340.953125 163.539062 341.570312 163.148438 342.152344 C 162.761719 342.734375 162.320312 343.269531 161.824219 343.765625 C 161.332031 344.261719 160.792969 344.703125 160.210938 345.089844 C 159.632812 345.480469 159.015625 345.808594 158.371094 346.074219 C 157.726562 346.34375 157.058594 346.546875 156.375 346.683594 C 155.6875 346.820312 154.996094 346.886719 154.296875 346.886719 C 153.597656 346.886719 152.90625 346.820312 152.21875 346.683594 C 151.535156 346.546875 150.867188 346.34375 150.222656 346.074219 C 149.574219 345.808594 148.960938 345.480469 148.378906 345.089844 C 147.800781 344.703125 147.261719 344.261719 146.765625 343.765625 C 146.273438 343.269531 145.832031 342.734375 145.441406 342.152344 C 145.054688 341.570312 144.726562 340.953125 144.460938 340.308594 C 144.191406 339.660156 143.988281 338.996094 143.851562 338.308594 C 143.714844 337.625 143.648438 336.929688 143.648438 336.230469 C 143.648438 335.53125 143.714844 334.839844 143.851562 334.152344 C 143.988281 333.464844 144.191406 332.800781 144.460938 332.152344 C 144.726562 331.507812 145.054688 330.890625 145.441406 330.308594 C 145.832031 329.730469 146.273438 329.191406 146.765625 328.695312 C 147.261719 328.199219 147.800781 327.757812 148.378906 327.371094 C 148.960938 326.980469 149.574219 326.652344 150.222656 326.386719 C 150.867188 326.117188 151.535156 325.914062 152.21875 325.78125 C 152.90625 325.644531 153.597656 325.574219 154.296875 325.574219 C 154.996094 325.574219 155.6875 325.644531 156.375 325.78125 C 157.058594 325.914062 157.726562 326.117188 158.371094 326.386719 C 159.015625 326.652344 159.632812 326.980469 160.210938 327.371094 C 160.792969 327.757812 161.332031 328.199219 161.824219 328.695312 C 162.320312 329.191406 162.761719 329.730469 163.148438 330.308594 C 163.539062 330.890625 163.867188 331.507812 164.132812 332.152344 C 164.402344 332.800781 164.605469 333.464844 164.738281 334.152344 C 164.875 334.839844 164.945312 335.53125 164.945312 336.230469 Z M 164.945312 336.230469 " fill-opacity="1" fill-rule="nonzero"/><path fill="#be1e2d" d="M 107.226562 329.804688 C 107.226562 330.503906 107.15625 331.199219 107.019531 331.882812 C 106.886719 332.570312 106.683594 333.238281 106.414062 333.882812 C 106.148438 334.53125 105.820312 335.144531 105.429688 335.726562 C 105.042969 336.308594 104.601562 336.847656 104.105469 337.339844 C 103.613281 337.835938 103.074219 338.277344 102.492188 338.664062 C 101.914062 339.054688 101.296875 339.382812 100.652344 339.652344 C 100.007812 339.917969 99.339844 340.121094 98.65625 340.257812 C 97.96875 340.394531 97.277344 340.460938 96.578125 340.460938 C 95.878906 340.460938 95.1875 340.394531 94.5 340.257812 C 93.816406 340.121094 93.148438 339.917969 92.503906 339.652344 C 91.855469 339.382812 91.242188 339.054688 90.660156 338.664062 C 90.082031 338.277344 89.542969 337.835938 89.046875 337.339844 C 88.554688 336.847656 88.113281 336.308594 87.722656 335.726562 C 87.335938 335.144531 87.007812 334.53125 86.738281 333.882812 C 86.472656 333.238281 86.269531 332.570312 86.132812 331.882812 C 85.996094 331.199219 85.929688 330.503906 85.929688 329.804688 C 85.929688 329.105469 85.996094 328.414062 86.132812 327.726562 C 86.269531 327.039062 86.472656 326.375 86.738281 325.726562 C 87.007812 325.082031 87.335938 324.46875 87.722656 323.886719 C 88.113281 323.304688 88.554688 322.765625 89.046875 322.269531 C 89.542969 321.777344 90.082031 321.335938 90.660156 320.945312 C 91.242188 320.558594 91.855469 320.226562 92.503906 319.960938 C 93.148438 319.691406 93.816406 319.492188 94.5 319.355469 C 95.1875 319.21875 95.878906 319.148438 96.578125 319.148438 C 97.277344 319.148438 97.96875 319.21875 98.65625 319.355469 C 99.339844 319.492188 100.007812 319.691406 100.652344 319.960938 C 101.296875 320.226562 101.914062 320.558594 102.492188 320.945312 C 103.074219 321.335938 103.613281 321.777344 104.105469 322.269531 C 104.601562 322.765625 105.042969 323.304688 105.429688 323.886719 C 105.820312 324.46875 106.148438 325.082031 106.414062 325.726562 C 106.683594 326.375 106.886719 327.039062 107.019531 327.726562 C 107.15625 328.414062 107.226562 329.105469 107.226562 329.804688 Z M 107.226562 329.804688 " fill-opacity="1" fill-rule="nonzero"/><path fill="#be1e2d" d="M 310.117188 261.984375 C 310.117188 262.683594 310.050781 263.375 309.914062 264.0625 C 309.777344 264.746094 309.574219 265.414062 309.308594 266.0625 C 309.039062 266.707031 308.710938 267.320312 308.324219 267.902344 C 307.9375 268.484375 307.496094 269.023438 307 269.519531 C 306.503906 270.011719 305.96875 270.453125 305.386719 270.84375 C 304.804688 271.230469 304.191406 271.558594 303.546875 271.828125 C 302.898438 272.09375 302.234375 272.296875 301.546875 272.433594 C 300.863281 272.570312 300.171875 272.640625 299.472656 272.640625 C 298.773438 272.640625 298.078125 272.570312 297.394531 272.433594 C 296.707031 272.296875 296.042969 272.09375 295.394531 271.828125 C 294.75 271.558594 294.136719 271.230469 293.554688 270.84375 C 292.972656 270.453125 292.4375 270.011719 291.941406 269.519531 C 291.445312 269.023438 291.003906 268.484375 290.617188 267.902344 C 290.230469 267.320312 289.902344 266.707031 289.632812 266.0625 C 289.367188 265.414062 289.164062 264.746094 289.027344 264.0625 C 288.890625 263.375 288.824219 262.683594 288.824219 261.984375 C 288.824219 261.28125 288.890625 260.589844 289.027344 259.902344 C 289.164062 259.21875 289.367188 258.550781 289.632812 257.90625 C 289.902344 257.257812 290.230469 256.644531 290.617188 256.0625 C 291.003906 255.480469 291.445312 254.941406 291.941406 254.449219 C 292.4375 253.953125 292.972656 253.511719 293.554688 253.121094 C 294.136719 252.734375 294.75 252.40625 295.394531 252.136719 C 296.042969 251.871094 296.707031 251.667969 297.394531 251.53125 C 298.078125 251.394531 298.773438 251.328125 299.472656 251.328125 C 300.171875 251.328125 300.863281 251.394531 301.546875 251.53125 C 302.234375 251.667969 302.898438 251.871094 303.546875 252.136719 C 304.191406 252.40625 304.804688 252.734375 305.386719 253.121094 C 305.96875 253.511719 306.503906 253.953125 307 254.449219 C 307.496094 254.941406 307.9375 255.480469 308.324219 256.0625 C 308.710938 256.644531 309.039062 257.257812 309.308594 257.90625 C 309.574219 258.550781 309.777344 259.21875 309.914062 259.902344 C 310.050781 260.589844 310.117188 261.28125 310.117188 261.984375 Z M 310.117188 261.984375 " fill-opacity="1" fill-rule="nonzero"/><path fill="#be1e2d" d="M 386.503906 272.625 C 386.503906 273.324219 386.433594 274.015625 386.296875 274.703125 C 386.164062 275.386719 385.960938 276.054688 385.691406 276.699219 C 385.425781 277.347656 385.097656 277.960938 384.707031 278.542969 C 384.320312 279.125 383.878906 279.664062 383.382812 280.160156 C 382.890625 280.652344 382.351562 281.09375 381.769531 281.484375 C 381.191406 281.871094 380.574219 282.199219 379.929688 282.46875 C 379.285156 282.734375 378.617188 282.9375 377.933594 283.074219 C 377.246094 283.210938 376.554688 283.28125 375.855469 283.28125 C 375.15625 283.28125 374.464844 283.210938 373.777344 283.074219 C 373.09375 282.9375 372.425781 282.734375 371.78125 282.46875 C 371.132812 282.199219 370.519531 281.871094 369.9375 281.484375 C 369.359375 281.09375 368.820312 280.652344 368.324219 280.160156 C 367.832031 279.664062 367.390625 279.125 367 278.542969 C 366.613281 277.960938 366.285156 277.347656 366.015625 276.699219 C 365.75 276.054688 365.546875 275.386719 365.410156 274.703125 C 365.273438 274.015625 365.207031 273.324219 365.207031 272.625 C 365.207031 271.921875 365.273438 271.230469 365.410156 270.542969 C 365.546875 269.859375 365.75 269.191406 366.015625 268.546875 C 366.285156 267.898438 366.613281 267.285156 367 266.703125 C 367.390625 266.121094 367.832031 265.582031 368.324219 265.089844 C 368.820312 264.59375 369.359375 264.152344 369.9375 263.761719 C 370.519531 263.375 371.132812 263.046875 371.78125 262.777344 C 372.425781 262.511719 373.09375 262.308594 373.777344 262.171875 C 374.464844 262.035156 375.15625 261.96875 375.855469 261.96875 C 376.554688 261.96875 377.246094 262.035156 377.933594 262.171875 C 378.617188 262.308594 379.285156 262.511719 379.929688 262.777344 C 380.574219 263.046875 381.191406 263.375 381.769531 263.761719 C 382.351562 264.152344 382.890625 264.59375 383.382812 265.089844 C 383.878906 265.582031 384.320312 266.121094 384.707031 266.703125 C 385.097656 267.285156 385.425781 267.898438 385.691406 268.546875 C 385.960938 269.191406 386.164062 269.859375 386.296875 270.542969 C 386.433594 271.230469 386.503906 271.921875 386.503906 272.625 Z M 386.503906 272.625 " fill-opacity="1" fill-rule="nonzero"/><path fill="#be1e2d" d="M 524.488281 228.855469 C 524.488281 229.554688 524.421875 230.246094 524.285156 230.933594 C 524.148438 231.621094 523.945312 232.285156 523.679688 232.933594 C 523.410156 233.578125 523.082031 234.195312 522.695312 234.773438 C 522.308594 235.355469 521.867188 235.894531 521.371094 236.390625 C 520.875 236.882812 520.339844 237.328125 519.757812 237.714844 C 519.175781 238.105469 518.5625 238.433594 517.917969 238.699219 C 517.269531 238.96875 516.605469 239.167969 515.917969 239.304688 C 515.234375 239.441406 514.539062 239.511719 513.84375 239.511719 C 513.144531 239.511719 512.449219 239.441406 511.765625 239.304688 C 511.078125 239.167969 510.414062 238.96875 509.765625 238.699219 C 509.121094 238.433594 508.507812 238.105469 507.925781 237.714844 C 507.34375 237.328125 506.808594 236.882812 506.3125 236.390625 C 505.816406 235.894531 505.375 235.355469 504.988281 234.773438 C 504.601562 234.195312 504.273438 233.578125 504.003906 232.933594 C 503.738281 232.285156 503.535156 231.621094 503.398438 230.933594 C 503.261719 230.246094 503.195312 229.554688 503.195312 228.855469 C 503.195312 228.15625 503.261719 227.460938 503.398438 226.777344 C 503.535156 226.089844 503.738281 225.421875 504.003906 224.777344 C 504.273438 224.128906 504.601562 223.515625 504.988281 222.933594 C 505.375 222.351562 505.816406 221.816406 506.3125 221.320312 C 506.808594 220.824219 507.34375 220.382812 507.925781 219.996094 C 508.507812 219.605469 509.121094 219.277344 509.765625 219.011719 C 510.414062 218.742188 511.078125 218.539062 511.765625 218.402344 C 512.449219 218.265625 513.144531 218.199219 513.84375 218.199219 C 514.539062 218.199219 515.234375 218.265625 515.917969 218.402344 C 516.605469 218.539062 517.269531 218.742188 517.917969 219.011719 C 518.5625 219.277344 519.175781 219.605469 519.757812 219.996094 C 520.339844 220.382812 520.875 220.824219 521.371094 221.320312 C 521.867188 221.816406 522.308594 222.351562 522.695312 222.933594 C 523.082031 223.515625 523.410156 224.128906 523.679688 224.777344 C 523.945312 225.421875 524.148438 226.089844 524.285156 226.777344 C 524.421875 227.460938 524.488281 228.15625 524.488281 228.855469 Z M 524.488281 228.855469 " fill-opacity="1" fill-rule="nonzero"/><path fill="#00a651" d="M 4.191406 370.488281 L 2.089844 369.171875 L 59.875 276.917969 L 94.683594 297.820312 L 126.171875 223.121094 L 203.089844 270.929688 L 270.628906 98.492188 L 332.886719 120.820312 L 413.53125 51.824219 L 452.789062 79.214844 L 451.378906 81.253906 L 413.6875 54.957031 L 333.402344 123.640625 L 272.050781 101.640625 L 204.3125 274.613281 L 127.332031 226.753906 L 95.839844 301.410156 L 60.6875 280.300781 Z M 4.191406 370.488281 " fill-opacity="1" fill-rule="nonzero"/><path fill="#00a651" d="M 70.789062 278.75 C 70.789062 279.449219 70.71875 280.144531 70.582031 280.828125 C 70.445312 281.515625 70.246094 282.183594 69.976562 282.828125 C 69.710938 283.476562 69.382812 284.089844 68.992188 284.671875 C 68.605469 285.253906 68.164062 285.789062 67.667969 286.285156 C 67.175781 286.78125 66.636719 287.222656 66.054688 287.609375 C 65.472656 288 64.859375 288.328125 64.214844 288.59375 C 63.566406 288.863281 62.902344 289.066406 62.214844 289.203125 C 61.53125 289.339844 60.839844 289.40625 60.140625 289.40625 C 59.441406 289.40625 58.746094 289.339844 58.0625 289.203125 C 57.375 289.066406 56.710938 288.863281 56.066406 288.59375 C 55.417969 288.328125 54.804688 288 54.222656 287.609375 C 53.640625 287.222656 53.105469 286.78125 52.609375 286.285156 C 52.117188 285.789062 51.675781 285.253906 51.285156 284.671875 C 50.898438 284.089844 50.570312 283.476562 50.300781 282.828125 C 50.035156 282.183594 49.832031 281.515625 49.695312 280.828125 C 49.558594 280.144531 49.492188 279.449219 49.492188 278.75 C 49.492188 278.050781 49.558594 277.359375 49.695312 276.671875 C 49.832031 275.984375 50.035156 275.320312 50.300781 274.671875 C 50.570312 274.027344 50.898438 273.410156 51.285156 272.832031 C 51.675781 272.25 52.117188 271.710938 52.609375 271.214844 C 53.105469 270.722656 53.640625 270.277344 54.222656 269.890625 C 54.804688 269.5 55.417969 269.171875 56.066406 268.90625 C 56.710938 268.636719 57.375 268.4375 58.0625 268.300781 C 58.746094 268.164062 59.441406 268.09375 60.140625 268.09375 C 60.839844 268.09375 61.53125 268.164062 62.214844 268.300781 C 62.902344 268.4375 63.566406 268.636719 64.214844 268.90625 C 64.859375 269.171875 65.472656 269.5 66.054688 269.890625 C 66.636719 270.277344 67.175781 270.722656 67.667969 271.214844 C 68.164062 271.710938 68.605469 272.25 68.992188 272.832031 C 69.382812 273.410156 69.710938 274.027344 69.976562 274.671875 C 70.246094 275.320312 70.445312 275.984375 70.582031 276.671875 C 70.71875 277.359375 70.789062 278.050781 70.789062 278.75 Z M 70.789062 278.75 " fill-opacity="1" fill-rule="nonzero"/><path fill="#00a651" d="M 104.015625 300.046875 C 104.015625 300.746094 103.949219 301.441406 103.8125 302.125 C 103.675781 302.8125 103.472656 303.476562 103.207031 304.125 C 102.9375 304.769531 102.609375 305.386719 102.222656 305.96875 C 101.832031 306.550781 101.390625 307.085938 100.898438 307.582031 C 100.402344 308.078125 99.863281 308.519531 99.285156 308.90625 C 98.703125 309.296875 98.089844 309.625 97.441406 309.890625 C 96.796875 310.160156 96.128906 310.363281 95.445312 310.5 C 94.757812 310.636719 94.066406 310.703125 93.367188 310.703125 C 92.667969 310.703125 91.976562 310.636719 91.289062 310.5 C 90.605469 310.363281 89.9375 310.160156 89.292969 309.890625 C 88.648438 309.625 88.03125 309.296875 87.453125 308.90625 C 86.871094 308.519531 86.332031 308.078125 85.839844 307.582031 C 85.34375 307.085938 84.902344 306.550781 84.515625 305.96875 C 84.125 305.386719 83.796875 304.769531 83.53125 304.125 C 83.261719 303.476562 83.058594 302.8125 82.925781 302.125 C 82.789062 301.441406 82.71875 300.746094 82.71875 300.046875 C 82.71875 299.347656 82.789062 298.65625 82.925781 297.96875 C 83.058594 297.28125 83.261719 296.617188 83.53125 295.96875 C 83.796875 295.324219 84.125 294.707031 84.515625 294.125 C 84.902344 293.546875 85.34375 293.007812 85.839844 292.511719 C 86.332031 292.015625 86.871094 291.574219 87.453125 291.1875 C 88.03125 290.796875 88.648438 290.46875 89.292969 290.203125 C 89.9375 289.933594 90.605469 289.730469 91.289062 289.59375 C 91.976562 289.460938 92.667969 289.390625 93.367188 289.390625 C 94.066406 289.390625 94.757812 289.460938 95.445312 289.597656 C 96.128906 289.730469 96.796875 289.933594 97.441406 290.203125 C 98.089844 290.46875 98.703125 290.796875 99.285156 291.1875 C 99.863281 291.574219 100.402344 292.015625 100.898438 292.511719 C 101.390625 293.007812 101.832031 293.546875 102.222656 294.125 C 102.609375 294.707031 102.9375 295.324219 103.207031 295.96875 C 103.472656 296.617188 103.675781 297.28125 103.8125 297.96875 C 103.949219 298.65625 104.015625 299.347656 104.015625 300.046875 Z M 104.015625 300.046875 " fill-opacity="1" fill-rule="nonzero"/><path fill="#00a651" d="M 136.664062 224.78125 C 136.664062 225.480469 136.597656 226.171875 136.460938 226.859375 C 136.324219 227.546875 136.121094 228.210938 135.855469 228.859375 C 135.585938 229.503906 135.257812 230.117188 134.871094 230.699219 C 134.480469 231.28125 134.039062 231.820312 133.546875 232.316406 C 133.050781 232.808594 132.511719 233.253906 131.933594 233.640625 C 131.351562 234.03125 130.738281 234.359375 130.089844 234.625 C 129.445312 234.894531 128.78125 235.09375 128.09375 235.230469 C 127.40625 235.367188 126.714844 235.4375 126.015625 235.4375 C 125.316406 235.4375 124.625 235.367188 123.9375 235.230469 C 123.253906 235.09375 122.585938 234.894531 121.941406 234.625 C 121.296875 234.359375 120.683594 234.03125 120.101562 233.640625 C 119.519531 233.253906 118.980469 232.808594 118.488281 232.316406 C 117.992188 231.820312 117.550781 231.28125 117.164062 230.699219 C 116.773438 230.117188 116.445312 229.503906 116.179688 228.859375 C 115.910156 228.210938 115.710938 227.546875 115.574219 226.859375 C 115.4375 226.171875 115.367188 225.480469 115.367188 224.78125 C 115.367188 224.082031 115.4375 223.386719 115.574219 222.703125 C 115.710938 222.015625 115.910156 221.347656 116.179688 220.703125 C 116.445312 220.054688 116.773438 219.441406 117.164062 218.859375 C 117.550781 218.277344 117.992188 217.742188 118.488281 217.246094 C 118.980469 216.75 119.519531 216.308594 120.101562 215.921875 C 120.683594 215.53125 121.296875 215.203125 121.941406 214.9375 C 122.585938 214.667969 123.253906 214.464844 123.9375 214.328125 C 124.625 214.191406 125.316406 214.125 126.015625 214.125 C 126.714844 214.125 127.40625 214.191406 128.09375 214.328125 C 128.78125 214.464844 129.445312 214.667969 130.089844 214.9375 C 130.738281 215.203125 131.351562 215.53125 131.933594 215.921875 C 132.511719 216.308594 133.050781 216.75 133.546875 217.246094 C 134.039062 217.742188 134.480469 218.277344 134.871094 218.859375 C 135.257812 219.441406 135.585938 220.054688 135.855469 220.703125 C 136.121094 221.347656 136.324219 222.015625 136.460938 222.703125 C 136.597656 223.386719 136.664062 224.082031 136.664062 224.78125 Z M 136.664062 224.78125 " fill-opacity="1" fill-rule="nonzero"/><path fill="#00a651" d="M 213.628906 272.625 C 213.628906 273.324219 213.558594 274.015625 213.421875 274.703125 C 213.289062 275.386719 213.085938 276.054688 212.816406 276.699219 C 212.550781 277.347656 212.222656 277.960938 211.832031 278.542969 C 211.445312 279.125 211.003906 279.664062 210.507812 280.160156 C 210.015625 280.652344 209.476562 281.09375 208.894531 281.484375 C 208.316406 281.871094 207.699219 282.199219 207.054688 282.46875 C 206.410156 282.734375 205.742188 282.9375 205.058594 283.074219 C 204.371094 283.210938 203.679688 283.28125 202.980469 283.28125 C 202.28125 283.28125 201.589844 283.210938 200.902344 283.074219 C 200.21875 282.9375 199.550781 282.734375 198.90625 282.46875 C 198.257812 282.199219 197.644531 281.871094 197.066406 281.484375 C 196.484375 281.09375 195.945312 280.652344 195.449219 280.160156 C 194.957031 279.664062 194.515625 279.125 194.125 278.542969 C 193.738281 277.960938 193.410156 277.347656 193.144531 276.699219 C 192.875 276.054688 192.671875 275.386719 192.535156 274.703125 C 192.402344 274.015625 192.332031 273.324219 192.332031 272.625 C 192.332031 271.921875 192.402344 271.230469 192.535156 270.542969 C 192.671875 269.859375 192.875 269.191406 193.144531 268.546875 C 193.410156 267.898438 193.738281 267.285156 194.125 266.703125 C 194.515625 266.121094 194.957031 265.582031 195.449219 265.089844 C 195.945312 264.59375 196.484375 264.152344 197.066406 263.761719 C 197.644531 263.375 198.257812 263.046875 198.90625 262.777344 C 199.550781 262.511719 200.21875 262.308594 200.902344 262.171875 C 201.589844 262.035156 202.28125 261.96875 202.980469 261.96875 C 203.679688 261.96875 204.371094 262.035156 205.058594 262.171875 C 205.742188 262.308594 206.410156 262.511719 207.054688 262.777344 C 207.699219 263.046875 208.316406 263.375 208.894531 263.761719 C 209.476562 264.152344 210.015625 264.59375 210.507812 265.089844 C 211.003906 265.582031 211.445312 266.121094 211.832031 266.703125 C 212.222656 267.285156 212.550781 267.898438 212.816406 268.546875 C 213.085938 269.191406 213.289062 269.859375 213.421875 270.542969 C 213.558594 271.230469 213.628906 271.921875 213.628906 272.625 Z M 213.628906 272.625 " fill-opacity="1" fill-rule="nonzero"/><path fill="#00a651" d="M 283.796875 101.671875 C 283.796875 102.371094 283.726562 103.0625 283.589844 103.75 C 283.457031 104.4375 283.253906 105.101562 282.984375 105.75 C 282.71875 106.394531 282.390625 107.011719 282 107.589844 C 281.613281 108.171875 281.171875 108.710938 280.675781 109.207031 C 280.183594 109.703125 279.644531 110.144531 279.0625 110.53125 C 278.484375 110.921875 277.867188 111.25 277.222656 111.515625 C 276.578125 111.785156 275.910156 111.984375 275.226562 112.121094 C 274.539062 112.257812 273.847656 112.328125 273.148438 112.328125 C 272.449219 112.328125 271.757812 112.257812 271.070312 112.121094 C 270.386719 111.984375 269.71875 111.785156 269.074219 111.515625 C 268.425781 111.25 267.8125 110.921875 267.230469 110.53125 C 266.652344 110.144531 266.113281 109.703125 265.617188 109.207031 C 265.125 108.710938 264.683594 108.171875 264.292969 107.589844 C 263.90625 107.011719 263.578125 106.394531 263.308594 105.75 C 263.042969 105.101562 262.839844 104.4375 262.703125 103.75 C 262.566406 103.0625 262.5 102.371094 262.5 101.671875 C 262.5 100.972656 262.566406 100.277344 262.703125 99.59375 C 262.839844 98.90625 263.042969 98.238281 263.308594 97.59375 C 263.578125 96.945312 263.90625 96.332031 264.292969 95.75 C 264.683594 95.167969 265.125 94.632812 265.617188 94.136719 C 266.113281 93.640625 266.652344 93.199219 267.230469 92.8125 C 267.8125 92.421875 268.425781 92.09375 269.074219 91.828125 C 269.71875 91.558594 270.386719 91.355469 271.070312 91.21875 C 271.757812 91.082031 272.449219 91.015625 273.148438 91.015625 C 273.847656 91.015625 274.539062 91.082031 275.226562 91.21875 C 275.910156 91.355469 276.578125 91.558594 277.222656 91.828125 C 277.867188 92.09375 278.484375 92.421875 279.0625 92.8125 C 279.644531 93.199219 280.183594 93.640625 280.675781 94.136719 C 281.171875 94.632812 281.613281 95.167969 282 95.75 C 282.390625 96.332031 282.71875 96.945312 282.984375 97.59375 C 283.253906 98.238281 283.457031 98.90625 283.589844 99.59375 C 283.726562 100.277344 283.796875 100.972656 283.796875 101.671875 Z M 283.796875 101.671875 " fill-opacity="1" fill-rule="nonzero"/><path fill="#00a651" d="M 342.09375 122.96875 C 342.09375 123.667969 342.027344 124.359375 341.890625 125.046875 C 341.753906 125.734375 341.550781 126.398438 341.285156 127.046875 C 341.015625 127.691406 340.6875 128.304688 340.300781 128.886719 C 339.910156 129.46875 339.46875 130.007812 338.976562 130.503906 C 338.480469 130.996094 337.945312 131.441406 337.363281 131.828125 C 336.78125 132.21875 336.167969 132.546875 335.519531 132.8125 C 334.875 133.082031 334.210938 133.28125 333.523438 133.417969 C 332.839844 133.554688 332.144531 133.625 331.445312 133.625 C 330.746094 133.625 330.054688 133.554688 329.367188 133.417969 C 328.683594 133.28125 328.015625 133.082031 327.371094 132.8125 C 326.726562 132.546875 326.113281 132.21875 325.53125 131.828125 C 324.949219 131.441406 324.410156 130.996094 323.917969 130.503906 C 323.421875 130.007812 322.980469 129.46875 322.59375 128.886719 C 322.203125 128.304688 321.875 127.691406 321.609375 127.046875 C 321.339844 126.398438 321.140625 125.734375 321.003906 125.046875 C 320.867188 124.359375 320.796875 123.667969 320.796875 122.96875 C 320.796875 122.269531 320.867188 121.574219 321.003906 120.890625 C 321.140625 120.203125 321.339844 119.535156 321.609375 118.890625 C 321.875 118.242188 322.203125 117.628906 322.59375 117.046875 C 322.980469 116.464844 323.421875 115.929688 323.917969 115.433594 C 324.410156 114.9375 324.949219 114.496094 325.53125 114.109375 C 326.113281 113.71875 326.726562 113.390625 327.371094 113.125 C 328.015625 112.855469 328.683594 112.652344 329.367188 112.515625 C 330.054688 112.378906 330.746094 112.3125 331.445312 112.3125 C 332.144531 112.3125 332.839844 112.378906 333.523438 112.515625 C 334.210938 112.652344 334.875 112.855469 335.519531 113.125 C 336.167969 113.390625 336.78125 113.71875 337.363281 114.109375 C 337.945312 114.496094 338.480469 114.9375 338.976562 115.433594 C 339.46875 115.929688 339.910156 116.464844 340.300781 117.046875 C 340.6875 117.628906 341.015625 118.242188 341.285156 118.890625 C 341.550781 119.535156 341.753906 120.203125 341.890625 120.890625 C 342.027344 121.574219 342.09375 122.269531 342.09375 122.96875 Z M 342.09375 122.96875 " fill-opacity="1" fill-rule="nonzero"/><path fill="#00a651" d="M 424.304688 53.390625 C 424.304688 54.089844 424.234375 54.78125 424.097656 55.46875 C 423.964844 56.15625 423.761719 56.820312 423.492188 57.46875 C 423.226562 58.113281 422.898438 58.726562 422.507812 59.308594 C 422.121094 59.890625 421.679688 60.429688 421.183594 60.925781 C 420.691406 61.417969 420.152344 61.863281 419.570312 62.25 C 418.992188 62.640625 418.375 62.96875 417.730469 63.234375 C 417.085938 63.503906 416.417969 63.703125 415.734375 63.839844 C 415.046875 63.976562 414.355469 64.046875 413.65625 64.046875 C 412.957031 64.046875 412.265625 63.976562 411.578125 63.839844 C 410.894531 63.703125 410.226562 63.503906 409.582031 63.234375 C 408.933594 62.96875 408.320312 62.640625 407.738281 62.25 C 407.160156 61.863281 406.621094 61.417969 406.125 60.925781 C 405.632812 60.429688 405.191406 59.890625 404.800781 59.308594 C 404.414062 58.726562 404.085938 58.113281 403.816406 57.46875 C 403.550781 56.820312 403.347656 56.15625 403.210938 55.46875 C 403.074219 54.78125 403.007812 54.089844 403.007812 53.390625 C 403.007812 52.691406 403.074219 51.996094 403.210938 51.3125 C 403.347656 50.625 403.550781 49.957031 403.816406 49.3125 C 404.085938 48.664062 404.414062 48.050781 404.800781 47.46875 C 405.191406 46.886719 405.632812 46.351562 406.125 45.855469 C 406.621094 45.359375 407.160156 44.917969 407.738281 44.53125 C 408.320312 44.140625 408.933594 43.8125 409.582031 43.546875 C 410.226562 43.277344 410.894531 43.074219 411.578125 42.9375 C 412.265625 42.800781 412.957031 42.734375 413.65625 42.734375 C 414.355469 42.734375 415.046875 42.800781 415.734375 42.9375 C 416.417969 43.074219 417.085938 43.277344 417.730469 43.546875 C 418.375 43.8125 418.992188 44.140625 419.570312 44.53125 C 420.152344 44.917969 420.691406 45.359375 421.183594 45.855469 C 421.679688 46.351562 422.121094 46.886719 422.507812 47.46875 C 422.898438 48.050781 423.226562 48.664062 423.492188 49.3125 C 423.761719 49.957031 423.964844 50.625 424.097656 51.3125 C 424.234375 51.996094 424.304688 52.691406 424.304688 53.390625 Z M 424.304688 53.390625 " fill-opacity="1" fill-rule="nonzero"/><path fill="#00a651" d="M 462.730469 80.234375 C 462.730469 80.933594 462.664062 81.625 462.527344 82.3125 C 462.390625 83 462.1875 83.664062 461.921875 84.3125 C 461.652344 84.957031 461.324219 85.574219 460.9375 86.152344 C 460.546875 86.734375 460.105469 87.273438 459.613281 87.769531 C 459.117188 88.265625 458.578125 88.707031 458 89.09375 C 457.417969 89.484375 456.804688 89.8125 456.15625 90.078125 C 455.511719 90.347656 454.847656 90.546875 454.160156 90.683594 C 453.472656 90.820312 452.78125 90.890625 452.082031 90.890625 C 451.382812 90.890625 450.691406 90.820312 450.003906 90.683594 C 449.320312 90.546875 448.652344 90.347656 448.007812 90.078125 C 447.363281 89.8125 446.75 89.484375 446.167969 89.09375 C 445.585938 88.707031 445.046875 88.265625 444.554688 87.769531 C 444.058594 87.273438 443.617188 86.734375 443.230469 86.152344 C 442.839844 85.574219 442.511719 84.957031 442.246094 84.3125 C 441.976562 83.664062 441.777344 83 441.640625 82.3125 C 441.503906 81.625 441.433594 80.933594 441.433594 80.234375 C 441.433594 79.535156 441.503906 78.839844 441.640625 78.15625 C 441.777344 77.46875 441.976562 76.800781 442.246094 76.15625 C 442.511719 75.507812 442.839844 74.894531 443.230469 74.3125 C 443.617188 73.730469 444.058594 73.195312 444.554688 72.699219 C 445.046875 72.203125 445.585938 71.761719 446.167969 71.375 C 446.75 70.984375 447.363281 70.65625 448.007812 70.390625 C 448.652344 70.121094 449.320312 69.917969 450.003906 69.78125 C 450.691406 69.644531 451.382812 69.578125 452.082031 69.578125 C 452.78125 69.578125 453.472656 69.644531 454.160156 69.78125 C 454.847656 69.917969 455.511719 70.121094 456.15625 70.390625 C 456.804688 70.65625 457.417969 70.984375 458 71.375 C 458.578125 71.761719 459.117188 72.203125 459.613281 72.699219 C 460.105469 73.195312 460.546875 73.730469 460.9375 74.3125 C 461.324219 74.894531 461.652344 75.507812 461.921875 76.15625 C 462.1875 76.800781 462.390625 77.46875 462.527344 78.15625 C 462.664062 78.839844 462.730469 79.535156 462.730469 80.234375 Z M 462.730469 80.234375 " fill-opacity="1" fill-rule="nonzero"/><path fill="#1c75bc" d="M 5.769531 369.828125 L 5.769531 0.078125 L 0.527344 0.078125 L 0.527344 375.078125 L 524.488281 375.078125 L 524.488281 369.828125 Z M 5.769531 369.828125 " fill-opacity="1" fill-rule="nonzero"/></svg>